<?xml version="1.0" standalone="no"?>
<!DOCTYPE svg PUBLIC "-//W3C//DTD SVG 20010904//EN"
 "http://www.w3.org/TR/2001/REC-SVG-20010904/DTD/svg10.dtd">
<svg version="1.0" xmlns="http://www.w3.org/2000/svg"
 width="512.000000pt" height="512.000000pt" viewBox="0 0 512.000000 512.000000"
 preserveAspectRatio="xMidYMid meet">
<metadata>
Created by potrace 1.11, written by Peter Selinger 2001-2013
</metadata>
<g transform="translate(0.000000,512.000000) scale(0.100000,-0.100000)"
fill="#000000" stroke="none">
<path d="M2378 5116 c-1 -2 -34 -6 -73 -10 -103 -9 -246 -33 -360 -62 -102
-25 -282 -81 -300 -93 -5 -4 -28 -13 -50 -20 -63 -21 -281 -132 -380 -193
-378 -235 -690 -565 -904 -956 -33 -62 -61 -115 -61 -117 0 -2 -15 -36 -34
-77 -66 -145 -130 -344 -165 -518 -20 -97 -27 -148 -41 -280 -8 -81 -5 -463 5
-520 3 -19 13 -78 21 -130 168 -1040 980 -1880 2019 -2089 99 -20 141 -26 285
-41 73 -7 450 -5 500 4 14 2 45 7 70 10 900 127 1663 716 2013 1554 84 202
153 455 173 637 3 28 9 79 14 115 8 66 6 468 -3 505 -3 11 -8 45 -11 75 -4 30
-16 100 -27 155 -150 742 -623 1383 -1289 1745 -81 43 -131 67 -275 130 -84
37 -292 99 -415 124 -100 20 -126 24 -245 42 -43 6 -461 15 -467 10z"/>
</g>
</svg>
